<?xml version="1.0" encoding="utf-8"?>
<!-- Generator: Adobe Illustrator 18.1.1, SVG Export Plug-In . SVG Version: 6.00 Build 0)  -->
<svg version="1.1" id="Layer_1" xmlns="http://www.w3.org/2000/svg" xmlns:xlink="http://www.w3.org/1999/xlink" x="0px" y="0px"
	 viewBox="126 -30 260 260" enable-background="new 126 -30 260 260" xml:space="preserve">
<g>
	<path fill="#29ABE2" d="M255.9,33.3c-4.7,4.3-10.3,12.9-16,21.9c-3.2-4-6.8-7.6-10.9-10.6c5.1-15.1,14.6-29.9,27-44.6h-0.2
		c12.4,14.6,21.9,29.4,27,44.6c-4.1,3-7.7,6.6-10.9,10.6C266.2,46.2,260.6,37.7,255.9,33.3z"/>
	<path d="M240,55.6"/>
	<path fill="#F15A24" d="M256,126.8c-13.4,0-25.9-9.9-24-26.8c2.1-19.2,10.2-36.3,24-51.4c13.7,15.1,21.8,32.2,24,51.4
		C281.9,116.9,267,126.8,256,126.8z"/>
	<path fill="#9E005D" d="M256,136.2c13.7,0.5,21.2,8.5,18.6,26.1c-1.8,12.2-9,24.8-18.6,37.7c-9.6-12.9-16.7-25.5-18.6-37.7
		C234.8,144.7,242.3,136.7,256,136.2z"/>
	<path fill="#FBB03B" d="M275.2,62.4c5.5-8,12-13.5,19-17.3c8.5,23.7,6.9,42.1-4.9,55.4C285.1,86,280.6,72.8,275.2,62.4z"/>
	<path fill="#662D91" d="M265.1,131.9c13.1-1.9,21.1-10.8,24.6-26c9.4-2,16.6-7.2,22.2-14.5C315.7,126.2,283.1,145.6,265.1,131.9z"
		/>
	<path fill="#29ABE2" d="M302.5,89.8l13.8-9.6c1.7,7.5,2,15.8,1.3,24.6c20.4-19,30.6-43.8,27.8-76c-15.3,7.5-29.2,18.1-41.9,31.5
		C305.4,69.6,304.8,79.5,302.5,89.8z"/>
	<path fill="#93278F" d="M282.1,141.1c20.5-6.1,36-19.2,46.5-39.1c12.1-6.4,23.4-7.8,33.6-3.5C341.8,135.9,312.4,151.2,282.1,141.1z
		"/>
	<path fill="#9E005D" d="M312.2,146c11.8,1.4,21.4-4.3,29.5-14.6c18.5,2.6,34.4,7,43.2,16.2C352.7,159,325.8,163.9,312.2,146z"/>
	<path fill="#9E005D" d="M280.5,142.8c-3.8,1.6-4.8,5.8-2.7,9.3c1.7,4,6.7,15.3,19.2,22.3c8.6,4.8,19.2,7,31.7,7
		c-3.1-10.6-9.1-22.7-17.6-28.6C303.9,147.7,290.9,153.8,280.5,142.8z"/>
	<path fill="#9E005D" d="M231.5,142.8c3.8,1.6,4.8,5.8,2.7,9.3c-1.7,4-6.7,15.3-19.2,22.3c-8.6,4.8-19.2,7-31.7,7
		c3.1-10.6,9.1-22.7,17.6-28.6C208.1,147.7,221.1,153.8,231.5,142.8z"/>
	<path fill="#FBB03B" d="M236.8,62.4c-5.5-8-12-13.5-19-17.3c-8.5,23.7-6.9,42.1,4.9,55.4C226.9,86,231.4,72.8,236.8,62.4z"/>
	<path fill="#662D91" d="M246.9,131.9c-13.1-1.9-21.1-10.8-24.6-26c-9.4-2-16.6-7.2-22.2-14.5C196.3,126.2,228.9,145.6,246.9,131.9z
		"/>
	<path fill="#29ABE2" d="M209.5,89.8l-13.8-9.6c-1.7,7.5-2,15.8-1.3,24.6c-20.4-19-30.6-43.8-27.8-76c15.3,7.5,29.2,18.1,41.9,31.5
		C206.6,69.6,207.2,79.5,209.5,89.8z"/>
	<path fill="#93278F" d="M229.9,141.1c-20.5-6.1-36-19.2-46.5-39.1c-12.1-6.4-23.4-7.8-33.6-3.5
		C170.2,135.9,199.6,151.2,229.9,141.1z"/>
	<path fill="#9E005D" d="M199.8,146c-11.8,1.4-21.4-4.3-29.5-14.6c-18.5,2.6-34.4,7-43.2,16.2C159.3,159,186.2,163.9,199.8,146z"/>
</g>
</svg>
